<?xml version="1.0" encoding="utf-8"?>
<!-- Generator: Adobe Illustrator 15.0.0, SVG Export Plug-In . SVG Version: 6.00 Build 0)  -->
<!DOCTYPE svg PUBLIC "-//W3C//DTD SVG 1.1//EN" "http://www.w3.org/Graphics/SVG/1.1/DTD/svg11.dtd">
<svg version="1.1" id="Layer_1" xmlns="http://www.w3.org/2000/svg" xmlns:xlink="http://www.w3.org/1999/xlink" x="0px" y="0px"
	 width="350px" height="350px" viewBox="0 0 350 350" enable-background="new 0 0 350 350" xml:space="preserve">
<rect x="42.695" y="11" fill="#FFFFFF" width="255.586" height="334"/>
<g>
	<path fill="#808285" d="M74.821,267.567l1.439-0.127c0.068,0.577,0.228,1.053,0.477,1.423s0.635,0.668,1.163,0.896
		c0.523,0.23,1.113,0.345,1.77,0.345c0.582,0,1.098-0.088,1.543-0.262c0.446-0.173,0.779-0.409,0.996-0.71
		c0.217-0.302,0.328-0.634,0.328-0.99c0-0.36-0.106-0.678-0.315-0.946c-0.211-0.273-0.558-0.498-1.041-0.685
		c-0.31-0.119-0.994-0.306-2.053-0.56c-1.061-0.257-1.802-0.495-2.229-0.724c-0.55-0.288-0.961-0.646-1.234-1.073
		c-0.269-0.427-0.403-0.905-0.403-1.438c0-0.581,0.167-1.126,0.496-1.631c0.332-0.509,0.814-0.894,1.448-1.153
		c0.635-0.264,1.342-0.397,2.119-0.397c0.855,0,1.61,0.142,2.262,0.414c0.654,0.277,1.157,0.683,1.508,1.217
		c0.351,0.535,0.541,1.142,0.568,1.821l-1.466,0.108c-0.079-0.729-0.345-1.28-0.799-1.653c-0.453-0.372-1.125-0.557-2.01-0.557
		c-0.926,0-1.598,0.168-2.021,0.505c-0.422,0.341-0.634,0.748-0.634,1.227c0,0.412,0.15,0.754,0.448,1.022
		c0.296,0.268,1.061,0.543,2.305,0.821c1.241,0.282,2.094,0.528,2.553,0.735c0.673,0.312,1.169,0.701,1.489,1.179
		c0.319,0.477,0.48,1.021,0.48,1.642c0,0.614-0.175,1.191-0.528,1.735c-0.351,0.543-0.855,0.967-1.515,1.268
		c-0.658,0.303-1.4,0.453-2.224,0.453c-1.045,0-1.92-0.152-2.627-0.456c-0.705-0.305-1.259-0.763-1.661-1.374
		C75.053,269.029,74.842,268.339,74.821,267.567z"/>
	<path fill="#808285" d="M97.725,271.278l4.433-11.545h1.646l4.721,11.545h-1.738l-1.347-3.497h-4.826l-1.268,3.497H97.725z
		 M101.057,266.536h3.913l-1.207-3.196c-0.367-0.971-0.64-1.769-0.817-2.393c-0.146,0.738-0.354,1.476-0.624,2.204L101.057,266.536z
		"/>
	<polygon fill="#808285" points="122.63,271.278 122.63,259.733 124.198,259.733 130.258,268.794 130.258,259.733 131.722,259.733 
		131.722,271.278 130.156,271.278 124.096,262.205 124.096,271.278 	"/>
	<path fill="#808285" d="M164.567,271.278v-11.545h3.977c0.896,0,1.582,0.055,2.055,0.167c0.66,0.151,1.225,0.429,1.69,0.825
		c0.61,0.517,1.064,1.172,1.368,1.974c0.302,0.799,0.452,1.715,0.452,2.742c0,0.877-0.104,1.654-0.309,2.332
		c-0.205,0.676-0.466,1.235-0.785,1.681c-0.32,0.442-0.67,0.792-1.051,1.045c-0.382,0.256-0.841,0.448-1.379,0.582
		c-0.538,0.128-1.154,0.197-1.853,0.197H164.567z M166.095,269.914h2.463c0.761,0,1.359-0.072,1.793-0.211
		c0.433-0.144,0.779-0.344,1.034-0.6c0.364-0.361,0.646-0.849,0.848-1.461c0.202-0.612,0.304-1.353,0.304-2.225
		c0-1.207-0.199-2.133-0.595-2.782c-0.397-0.648-0.879-1.084-1.445-1.305c-0.41-0.155-1.069-0.235-1.976-0.235h-2.425V269.914z"/>
	<rect x="189.371" y="259.733" fill="#808285" width="1.527" height="11.545"/>
	<polygon fill="#808285" points="206.521,271.278 206.521,259.733 214.866,259.733 214.866,261.096 208.047,261.096 
		208.047,264.632 214.433,264.632 214.433,265.985 208.047,265.985 208.047,269.914 215.135,269.914 215.135,271.278 	"/>
	<path fill="#808285" d="M235.543,266.75v-1.354l4.889-0.011v4.284c-0.75,0.599-1.522,1.05-2.322,1.351
		c-0.797,0.303-1.617,0.453-2.458,0.453c-1.132,0-2.162-0.244-3.088-0.729c-0.926-0.486-1.626-1.186-2.099-2.104
		c-0.474-0.917-0.709-1.944-0.709-3.078c0-1.121,0.235-2.174,0.705-3.146c0.471-0.976,1.146-1.697,2.027-2.171
		c0.882-0.47,1.897-0.709,3.046-0.709c0.836,0,1.589,0.137,2.265,0.408c0.673,0.271,1.202,0.645,1.585,1.131
		c0.382,0.481,0.677,1.113,0.875,1.888l-1.378,0.378c-0.173-0.588-0.391-1.051-0.646-1.386s-0.624-0.605-1.101-0.805
		c-0.479-0.204-1.009-0.305-1.591-0.305c-0.697,0-1.301,0.105-1.81,0.318c-0.511,0.214-0.92,0.491-1.235,0.838
		c-0.309,0.348-0.554,0.726-0.728,1.144c-0.295,0.712-0.439,1.487-0.439,2.322c0,1.027,0.179,1.888,0.529,2.581
		c0.355,0.694,0.872,1.208,1.551,1.545c0.677,0.333,1.396,0.5,2.154,0.5c0.663,0,1.309-0.127,1.938-0.38
		c0.627-0.255,1.108-0.525,1.431-0.816v-2.146H235.543z"/>
	<path fill="#808285" d="M255.118,265.654c0-1.916,0.515-3.415,1.546-4.499c1.027-1.083,2.354-1.626,3.98-1.626
		c1.066,0,2.027,0.256,2.881,0.764c0.856,0.509,1.51,1.219,1.957,2.13c0.448,0.911,0.674,1.942,0.674,3.099
		c0,1.168-0.235,2.218-0.709,3.14c-0.473,0.927-1.142,1.624-2.006,2.098c-0.868,0.477-1.801,0.714-2.805,0.714
		c-1.085,0-2.058-0.264-2.912-0.787c-0.856-0.522-1.504-1.24-1.944-2.15C255.338,267.627,255.118,266.666,255.118,265.654z
		 M256.693,265.677c0,1.394,0.374,2.488,1.122,3.288c0.749,0.8,1.684,1.201,2.813,1.201c1.152,0,2.095-0.405,2.839-1.214
		c0.743-0.806,1.114-1.955,1.114-3.44c0-0.938-0.158-1.758-0.479-2.459c-0.316-0.701-0.779-1.245-1.392-1.631
		c-0.61-0.386-1.298-0.577-2.059-0.577c-1.082,0-2.012,0.37-2.791,1.114C257.081,262.7,256.693,263.94,256.693,265.677z"/>
	<polygon fill="#2F4663" points="64.854,305.896 68.943,278.783 77.29,278.783 77.29,316.97 71.617,316.97 71.617,289.586 
		67.47,316.97 61.799,316.97 57.323,289.968 57.323,316.97 52.084,316.97 52.084,278.783 60.433,278.783 	"/>
	<polygon fill="#2F4663" points="88.2,294.876 96.436,294.876 96.436,300.331 88.2,300.331 88.2,311.517 98.567,311.517 
		98.567,316.97 82.197,316.97 82.197,278.783 98.567,278.783 98.567,284.236 88.2,284.236 	"/>
	<path fill="#2F4663" d="M122.238,316.97h-6.053l-1.036-6.929h-7.367l-1.037,6.929h-5.509l6.109-38.187h8.784L122.238,316.97z
		 M108.546,304.859h5.782l-2.89-19.313L108.546,304.859z"/>
	<polygon fill="#2F4663" points="125.565,278.783 131.568,278.783 131.568,311.517 141.442,311.517 141.442,316.97 125.565,316.97 	
		"/>
	<path fill="#2F4663" d="M161.677,278.345c5.837,0,8.842,3.493,8.842,9.604v1.198h-5.675v-1.581c0-2.729-1.092-3.764-2.999-3.764
		c-1.912,0-3.004,1.035-3.004,3.764c0,7.855,11.73,9.328,11.73,20.239c0,6.11-3.057,9.603-8.947,9.603
		c-5.892,0-8.945-3.492-8.945-9.603v-2.346h5.673v2.729c0,2.729,1.2,3.709,3.109,3.709c1.91,0,3.111-0.98,3.111-3.709
		c0-7.856-11.732-9.329-11.732-20.239C152.841,281.838,155.843,278.345,161.677,278.345z"/>
	<polygon fill="#2F4663" points="180.552,294.876 188.792,294.876 188.792,300.331 180.552,300.331 180.552,311.517 
		190.917,311.517 190.917,316.97 174.551,316.97 174.551,278.783 190.917,278.783 190.917,284.236 180.552,284.236 	"/>
	<path fill="#2F4663" d="M207.721,316.97c-0.328-0.981-0.546-1.581-0.546-4.689v-6.004c0-3.546-1.201-4.854-3.929-4.854h-2.071
		v15.548h-6.003v-38.187h9.057c6.219,0,8.893,2.892,8.893,8.782v3c0,3.93-1.256,6.494-3.928,7.747c3,1.255,3.982,4.146,3.982,8.128
		v5.894c0,1.854,0.054,3.22,0.654,4.636H207.721z M201.175,284.236v11.73h2.346c2.238,0,3.6-0.982,3.6-4.038v-3.763
		c0-2.727-0.926-3.93-3.057-3.93H201.175z"/>
	<polygon fill="#2F4663" points="226.594,309.935 231.178,278.783 236.687,278.783 230.794,316.97 221.847,316.97 215.957,278.783 
		222.012,278.783 	"/>
	<rect x="240.013" y="278.783" fill="#2F4663" width="6.003" height="38.187"/>
	<path fill="#2F4663" d="M268.325,302.73v5.074c0,6.11-3.055,9.603-8.946,9.603s-8.948-3.492-8.948-9.603v-19.856
		c0-6.11,3.057-9.604,8.948-9.604s8.946,3.493,8.946,9.604v3.71h-5.673v-4.093c0-2.729-1.202-3.764-3.109-3.764
		c-1.911,0-3.11,1.035-3.11,3.764v20.622c0,2.729,1.199,3.709,3.11,3.709c1.907,0,3.109-0.98,3.109-3.709v-5.457H268.325z"/>
	<polygon fill="#2F4663" points="278.523,294.876 286.763,294.876 286.763,300.331 278.523,300.331 278.523,311.517 
		288.892,311.517 288.892,316.97 272.523,316.97 272.523,278.783 288.892,278.783 288.892,284.236 278.523,284.236 	"/>
	<path fill="#808285" d="M91.37,336.026v-11.54h4.353c0.766,0,1.351,0.034,1.756,0.108c0.568,0.095,1.041,0.273,1.425,0.54
		c0.382,0.263,0.691,0.634,0.924,1.113c0.233,0.476,0.351,1.001,0.351,1.575c0,0.98-0.312,1.812-0.936,2.491
		c-0.626,0.681-1.754,1.017-3.385,1.017h-2.962v4.695H91.37z M92.896,329.972h2.984c0.986,0,1.688-0.185,2.101-0.551
		c0.416-0.368,0.623-0.884,0.623-1.551c0-0.484-0.123-0.897-0.365-1.239c-0.246-0.345-0.566-0.572-0.965-0.682
		c-0.257-0.069-0.732-0.103-1.425-0.103h-2.953V329.972z"/>
	<path fill="#808285" d="M115.045,336.026v-11.54h5.117c1.029,0,1.812,0.102,2.345,0.309c0.536,0.21,0.966,0.575,1.285,1.1
		c0.321,0.523,0.48,1.105,0.48,1.737c0,0.82-0.267,1.512-0.796,2.073c-0.529,0.562-1.348,0.917-2.455,1.071
		c0.405,0.192,0.71,0.384,0.921,0.573c0.446,0.41,0.868,0.923,1.266,1.536l2.008,3.141h-1.92l-1.527-2.4
		c-0.445-0.695-0.813-1.224-1.104-1.593c-0.286-0.368-0.543-0.624-0.772-0.771c-0.231-0.147-0.462-0.249-0.698-0.306
		c-0.172-0.037-0.458-0.056-0.849-0.056h-1.772v5.126H115.045z M116.573,329.578h3.282c0.698,0,1.244-0.073,1.638-0.217
		c0.393-0.145,0.692-0.374,0.896-0.691c0.205-0.318,0.308-0.663,0.308-1.038c0-0.546-0.199-0.992-0.594-1.346
		c-0.396-0.352-1.022-0.527-1.878-0.527h-3.652V329.578z"/>
	<path fill="#808285" d="M139.1,330.406c0-1.918,0.514-3.419,1.543-4.5c1.028-1.083,2.358-1.627,3.984-1.627
		c1.066,0,2.027,0.256,2.881,0.765c0.855,0.508,1.506,1.219,1.957,2.128c0.449,0.91,0.671,1.943,0.671,3.1
		c0,1.169-0.237,2.219-0.707,3.141c-0.474,0.924-1.143,1.623-2.01,2.097c-0.865,0.477-1.799,0.714-2.802,0.714
		c-1.087,0-2.057-0.264-2.913-0.787c-0.854-0.522-1.503-1.239-1.945-2.15C139.321,332.377,139.1,331.418,139.1,330.406z
		 M140.674,330.431c0,1.387,0.374,2.484,1.123,3.284c0.747,0.802,1.685,1.201,2.814,1.201c1.148,0,2.096-0.406,2.837-1.212
		c0.744-0.808,1.113-1.954,1.113-3.442c0-0.939-0.158-1.76-0.475-2.458c-0.317-0.702-0.784-1.243-1.396-1.631
		c-0.608-0.386-1.298-0.578-2.055-0.578c-1.084,0-2.014,0.371-2.792,1.115C141.064,327.451,140.674,328.69,140.674,330.431z"/>
	<path fill="#808285" d="M170.405,331.5v-1.355l4.89-0.007v4.282c-0.751,0.598-1.524,1.049-2.322,1.349
		c-0.8,0.302-1.617,0.454-2.456,0.454c-1.134,0-2.166-0.243-3.091-0.728c-0.926-0.488-1.627-1.189-2.097-2.106
		c-0.472-0.917-0.711-1.944-0.711-3.077c0-1.124,0.237-2.175,0.707-3.146c0.468-0.976,1.146-1.696,2.027-2.17
		c0.882-0.471,1.897-0.711,3.046-0.711c0.835,0,1.589,0.138,2.264,0.408c0.674,0.27,1.202,0.647,1.585,1.129
		c0.385,0.484,0.674,1.111,0.875,1.89l-1.377,0.379c-0.174-0.589-0.391-1.052-0.646-1.386c-0.258-0.336-0.624-0.605-1.104-0.808
		c-0.477-0.202-1.006-0.303-1.59-0.303c-0.696,0-1.301,0.104-1.81,0.318c-0.509,0.215-0.921,0.492-1.233,0.839
		c-0.312,0.345-0.554,0.729-0.728,1.142c-0.293,0.714-0.44,1.488-0.44,2.323c0,1.028,0.176,1.889,0.53,2.582
		c0.354,0.69,0.87,1.209,1.546,1.542c0.679,0.335,1.4,0.502,2.161,0.502c0.66,0,1.305-0.123,1.936-0.379
		c0.63-0.257,1.106-0.526,1.432-0.815V331.5H170.405z"/>
	<path fill="#808285" d="M190.47,336.026v-11.54h5.117c1.027,0,1.812,0.102,2.347,0.309c0.534,0.21,0.963,0.575,1.281,1.1
		c0.319,0.523,0.482,1.105,0.482,1.737c0,0.82-0.267,1.512-0.798,2.073c-0.53,0.562-1.347,0.917-2.454,1.071
		c0.404,0.192,0.712,0.384,0.92,0.573c0.445,0.41,0.869,0.923,1.268,1.536l2.009,3.141h-1.921l-1.529-2.4
		c-0.443-0.695-0.813-1.224-1.101-1.593c-0.29-0.368-0.548-0.624-0.776-0.771c-0.228-0.147-0.458-0.249-0.697-0.306
		c-0.172-0.037-0.455-0.056-0.849-0.056h-1.772v5.126H190.47z M191.996,329.578h3.284c0.696,0,1.243-0.073,1.638-0.217
		c0.392-0.145,0.69-0.374,0.896-0.691c0.205-0.318,0.307-0.663,0.307-1.038c0-0.546-0.198-0.992-0.594-1.346
		c-0.396-0.352-1.022-0.527-1.879-0.527h-3.652V329.578z"/>
	<path fill="#808285" d="M213.719,336.026l4.432-11.54h1.648l4.725,11.54h-1.741l-1.348-3.495h-4.824l-1.269,3.495H213.719z
		 M217.05,331.286h3.914l-1.203-3.195c-0.366-0.972-0.643-1.769-0.819-2.393c-0.149,0.737-0.356,1.474-0.623,2.203L217.05,331.286z"
		/>
	<path fill="#808285" d="M238.594,336.026v-11.54h2.299l2.73,8.172c0.253,0.761,0.438,1.328,0.552,1.707
		c0.132-0.42,0.338-1.038,0.615-1.852l2.762-8.027h2.056v11.54h-1.472v-9.66l-3.355,9.66h-1.377l-3.336-9.825v9.825H238.594z"/>
	<path fill="#687785" d="M88.058,18.186L69.515,37.201v182.873c5.208-3.228,11.646-6.047,18.812-8.199l1.522-48.836
		c-0.952-0.874-1.569-2.245-1.569-3.788c0-1.24,0.397-2.364,1.047-3.214l0.186-0.416c0,0-0.17-2.22-2.56-5.878l0.305-20.332
		c-0.275-6.957,0.363-11.168-0.275-25.865c-0.577-13.273-3.029-26.985-3.029-26.985s-0.617-6.052,1.238-8.786
		c0,0,0.665-1.348,2.737-1.348c1.037,0,2.425,0.338,4.26,1.348c0,0,2.064,0.742,4.64,5.06v-2.671h4.821V32.767L88.058,18.186"/>
	<path fill="#95A0AA" d="M130.279,111.737h-9.64v95.73c3.209,0.044,6.421,0.199,9.64,0.453V111.737"/>
	<path fill="#B1D4F3" d="M157.155,46.212h-26.876v65.525h7.449v96.93c4.212,0.509,8.426,1.153,12.644,1.896v-88.218l0.021-41.331
		l6.762-7.584V46.212"/>
	<path fill="#6893B8" d="M137.729,111.737h-7.449v96.184c2.481,0.195,4.964,0.445,7.449,0.746V111.737"/>
	<path fill="#9C9C9C" d="M201.268,92.827h-25.772v20.332c6.987,5.557,12.163,18.986,11.99,32.214
		c-0.174,13.329-0.146,19.56-6.676,26.192c-1.735,1.762-3.579,3.539-5.314,5.024v39.227c1.449,0.333,2.894,0.666,4.341,1
		c3.447,0.794,6.894,1.589,10.33,2.361V118.307h11.102V92.827"/>
	<path fill="#96AEC4" d="M211.199,118.307h-9.932v103.26c3.316,0.676,6.632,1.305,9.932,1.869V118.307"/>
	<path fill="#5D758B" d="M201.268,118.307h-11.102v100.869c3.709,0.833,7.41,1.641,11.102,2.391V118.307"/>
	<path fill="#96AEC4" d="M104.718,148.394c-0.202,0.365-0.498,0.699-0.933,0.899c0,0-1.055,0.251-2.136,1.422v58.109
		c1.018-0.164,2.038-0.315,3.069-0.452V148.394 M120.64,70.163h-18.99v14.791c1.075,3.911,2.082,8.698,2.913,14.553
		c0,0,0.459,4.298,0.768,12.231h15.309V70.163"/>
	<path fill="#3E607D" d="M101.649,150.715c-0.887,0.959-1.79,2.539-2.143,5.104l0.089,0.256c0.632,0.841,1.018,1.953,1.018,3.174
		c0,0.916-0.219,1.764-0.593,2.49c-0.139,0.432-0.347,0.828-0.64,1.163l0.563,46.211c0.564-0.101,1.137-0.199,1.706-0.29V150.715
		 M101.649,70.163h-4.821v2.671c1.535,2.572,3.251,6.411,4.821,12.119V70.163"/>
	<path fill="#597793" d="M120.64,111.737h-15.309c0.315,8.105,0.472,20.004-0.184,34.988c0,0,0,0.898-0.428,1.668v59.979
		c4.021-0.533,8.137-0.845,12.281-0.904c0.605-0.01,1.211-0.015,1.817-0.015c0.606,0,1.217,0.005,1.824,0.015V111.737"/>
	<path fill="#95B8E3" d="M157.155,170.357v41.478c2.604,0.517,5.208,1.062,7.812,1.623l0.507-10.654l0.43-20.459
		c0,0,0.223-2.169-1.743-5.084c-1.786-1.425-4.475-2.975-6.05-5.36C157.793,171.418,157.474,170.904,157.155,170.357
		 M162.935,66.947l-5.78,6.483v45.95c3.045-5.396,7.033-8.88,11.539-8.88c0.044,0,0.087,0,0.131,0
		c1.298,0.02,2.575,0.328,3.815,0.886V92.827h2.855V81.015l-0.019,0.939L162.935,66.947"/>
	<path fill="#76A7DE" d="M157.155,73.43l-6.762,7.584l-0.021,41.331v88.218c2.26,0.398,4.521,0.825,6.783,1.271v-41.478
		c-3.188-5.467-6.307-14.183-6.155-25.532c0.121-9.414,2.434-18.855,6.155-25.445V73.43"/>
	<path fill="#95B8E3" d="M172.64,182.426c0,0.012-0.002,0.022-0.002,0.035l-0.894,20.759l0.367,11.823
		c0.177,0.04,0.351,0.081,0.528,0.121V182.426"/>
	<path fill="#6E91BB" d="M175.495,176.588c-0.336,0.287-0.669,0.566-0.995,0.83c-0.872,1.181-1.743,2.871-1.86,5.008v32.738
		c0.952,0.216,1.905,0.434,2.855,0.65V176.588 M175.495,92.827h-2.855v18.559c0.979,0.441,1.934,1.038,2.855,1.773V92.827"/>
	<path fill="#687785" d="M271.462,223.739c-0.306,0.176-0.613,0.349-0.924,0.522c0.311-0.104,0.616-0.207,0.924-0.313V223.739
		 M255.613,84.173l-8.496,6.865v130.91h1.623v3.883c7.678-0.604,15.257-2.052,22.722-4.633V96.958l-0.025,0.856L255.613,84.173"/>
	<path fill="#CDCECF" d="M247.117,68.521h-35.918v49.785h7.595V224.61c7.049,0.969,14.045,1.556,20.972,1.562v-91.641l0.024-37.573
		l7.327-5.92V68.521"/>
	<path fill="#95A3B0" d="M218.794,118.307h-7.595v105.129c2.537,0.436,5.069,0.829,7.595,1.175V118.307"/>
	<path fill="#7B858E" d="M247.117,91.038l-7.327,5.92l-0.024,37.573v91.641c0.028,0,0.057,0,0.084,0c0.214,0,0.429,0,0.642-0.002
		v-4.222h6.626V91.038"/>
	<path fill="#FFFFFF" d="M86.982,103.545c0.638,14.697,0,18.909,0.275,25.865l-0.305,20.332c2.39,3.658,2.56,5.878,2.56,5.878
		l-0.186,0.416c-0.649,0.851-1.047,1.975-1.047,3.214c0,1.543,0.617,2.915,1.569,3.788l-1.847,59.205h12.1l-0.723-59.34
		c0.293-0.335,0.501-0.731,0.64-1.163c0.374-0.726,0.593-1.575,0.593-2.49c0-1.221-0.386-2.333-1.018-3.174l-0.089-0.256
		c0.781-5.692,4.279-6.527,4.279-6.527c1.361-0.625,1.361-2.567,1.361-2.567c1.297-29.65-0.584-47.219-0.584-47.219
		c-4.083-28.747-12.374-31.732-12.374-31.732c-5.501-3.032-6.997,0-6.997,0c-1.855,2.734-1.238,8.786-1.238,8.786
		S86.405,90.272,86.982,103.545"/>
	<path fill="#FFFFFF" d="M164.161,177.261c1.966,2.915,1.743,5.084,1.743,5.084l-0.43,20.459l-0.926,19.439h7.788l-0.592-19.023
		l0.894-20.759c0.11-2.153,0.985-3.854,1.862-5.043c2.012-1.625,4.236-3.75,6.31-5.854c6.53-6.632,6.502-12.863,6.676-26.192
		c0.227-17.19-8.584-34.72-18.661-34.873c-10.074-0.151-17.602,17.133-17.825,34.325c-0.167,12.486,3.624,21.784,7.11,27.076
		C159.686,174.286,162.375,175.836,164.161,177.261"/>
	<path fill="#FFFFFF" d="M231.203,212.423c0.889,1.436,2.257,1.914,3.474,2.86l3.283,2.566c1.998,1.576,2.495,3.37,2.602,4.394
		h8.169c0.665-3.932,3.737-5.744,3.737-5.744l2.046-1.516c3.62-2.178,3.762-5.935,3.762-5.935c-0.044-1.708,0.021-3.518-0.015-5.262
		c-0.064-3.124-0.394-6.218-0.65-9.332c-0.312-3.787-0.646-7.576-0.985-11.363c-0.372-4.082-0.714-8.168-1.062-12.25
		c-0.278-3.283-0.56-6.565-0.837-9.848c-0.114-1.334-0.229-2.662-0.343-3.993c-2.3-7.216-3.31,0.282-3.31,0.282l1.736,38.255
		l-0.016,0.021c-0.028,0.682-0.541,1.23-1.191,1.25c-0.677,0.021-1.243-0.553-1.263-1.278l0.003-0.05l-0.017-0.064l-1.64-38.159
		c-2.054-8.98-3.224-0.104-3.224-0.104l0.731,38.386l-0.009,0.014c0.013,0.748-0.538,1.37-1.239,1.39
		c-0.668,0.019-1.226-0.505-1.305-1.206l-0.016-0.018l-1.649-38.457c0.057-3.115-1.579-3.706-1.579-3.706
		c-1.67,0.696-1.54,3.9-1.54,3.9l-0.367,38.511l-0.021,0.072l0.003,0.003c0.009,0.385-0.176,0.718-0.442,0.925l-0.435,0.186
		l-0.099,0.024c-0.559,0.018-1.022-0.462-1.04-1.072l0.017-0.094l-0.097-38.683c-1.357-6.902-3.104-0.079-3.104-0.079l-1.265,18.218
		l-1.754,28.825c-0.091,1.488-0.223,3.384,0.002,5.125C230.394,210.525,230.678,211.575,231.203,212.423z"/>
	<polyline fill="#FFFFFF" points="248.74,231.085 240.491,231.085 240.491,221.948 248.74,221.948 248.74,231.085 	"/>
	<path fill="#FFFFFF" d="M60.903,226.972c9.68-10.551,32.418-19.164,56.096-19.504c20.849-0.293,41.932,4.525,62.837,9.347
		c34.239,7.893,68.004,15.785,99.484,1.217c1.433-1.139,0.469-0.062,0,0.813c-15.385,10.346-33.979,18.481-59.675,18.693
		c-20.151,0.171-40.63-4.228-61.081-8.626C125.423,221.785,92.359,214.658,60.903,226.972"/>
	<path fill="#FFFFFF" d="M60.903,229.723c9.68-10.55,32.418-19.165,56.096-19.506c20.849-0.293,41.931,4.527,62.834,9.347
		c34.24,7.895,68.007,15.79,99.487,1.217c1.433-1.136,0.469-0.062,0,0.814c-15.385,10.347-33.979,18.482-59.675,18.692
		c-20.153,0.173-40.634-4.226-61.086-8.623C125.419,224.535,92.357,217.41,60.903,229.723"/>
	<path fill="#687785" d="M280.048,222.352c-0.07,0-0.284,0.143-0.728,0.494c-1.908,0.883-3.825,1.685-5.748,2.407
		c-14.253,8.547-31.35,14.851-53.927,15.034c-0.383,0.005-0.768,0.006-1.149,0.006c-19.78,0-39.874-4.315-59.937-8.629
		c-20.065-4.316-40.102-8.632-59.77-8.632c-11.56,0-22.994,1.491-34.23,5.349c-1.366,1.104-2.59,2.245-3.656,3.405
		c12.41-4.857,25.071-6.69,37.888-6.69c19.668,0,39.707,4.316,59.774,8.63c20.065,4.316,40.156,8.632,59.938,8.632
		c0.382,0,0.762-0.002,1.143-0.005c25.695-0.213,44.29-8.35,59.675-18.694C279.644,223.052,280.204,222.352,280.048,222.352"/>
	<path fill="#687785" d="M118.81,212.267c-0.603,0-1.208,0.003-1.811,0.013c-21.07,0.306-41.397,7.16-52.44,16.102
		c11.237-3.857,22.67-5.349,34.23-5.349c19.668,0,39.705,4.315,59.77,8.632c20.062,4.313,40.156,8.629,59.937,8.629
		c0.382,0,0.767-0.001,1.149-0.006c22.577-0.184,39.674-6.487,53.927-15.034c-11.006,4.134-22.27,5.733-33.723,5.733
		c-19.584,0-39.718-4.68-60.015-9.36C159.534,216.946,139.068,212.267,118.81,212.267"/>
</g>
</svg>
