<?xml version="1.0" encoding="utf-8"?>
<!-- Generator: Adobe Illustrator 19.0.0, SVG Export Plug-In . SVG Version: 6.00 Build 0)  -->
<!DOCTYPE svg PUBLIC "-//W3C//DTD SVG 1.1//EN" "http://www.w3.org/Graphics/SVG/1.1/DTD/svg11.dtd">
<svg version="1.1" id="Layer_1" xmlns="http://www.w3.org/2000/svg" xmlns:xlink="http://www.w3.org/1999/xlink" x="0px" y="0px"
	 viewBox="-63.5 502 217 70" style="enable-background:new -63.5 502 217 70;" xml:space="preserve">
<style type="text/css">
	.st0{fill:#FFFFFF;}
	.st1{fill:#687785;}
	.st2{fill:#95A0AA;}
	.st3{fill:#B1D4F3;}
	.st4{fill:#6893B8;}
	.st5{fill:#9C9C9C;}
	.st6{fill:#96AEC4;}
	.st7{fill:#5D758B;}
	.st8{fill:#3E607D;}
	.st9{fill:#597793;}
	.st10{fill:#95B8E3;}
	.st11{fill:#76A7DE;}
	.st12{fill:#6E91BB;}
	.st13{fill:#CDCECF;}
	.st14{fill:#95A3B0;}
	.st15{fill:#7B858E;}
</style>
<g>
	<path class="st0" d="M28.1,519.2l0.8-0.1c0,0.3,0.1,0.6,0.3,0.8c0.1,0.2,0.4,0.4,0.7,0.5c0.3,0.1,0.7,0.2,1,0.2
		c0.3,0,0.6-0.1,0.9-0.2c0.3-0.1,0.5-0.2,0.6-0.4c0.1-0.2,0.2-0.4,0.2-0.6c0-0.2-0.1-0.4-0.2-0.6c-0.1-0.2-0.3-0.3-0.6-0.4
		c-0.2-0.1-0.6-0.2-1.2-0.3c-0.6-0.2-1.1-0.3-1.3-0.4c-0.3-0.2-0.6-0.4-0.7-0.6c-0.2-0.3-0.2-0.5-0.2-0.8c0-0.3,0.1-0.7,0.3-1
		c0.2-0.3,0.5-0.5,0.8-0.7c0.4-0.2,0.8-0.2,1.2-0.2c0.5,0,0.9,0.1,1.3,0.2c0.4,0.2,0.7,0.4,0.9,0.7c0.2,0.3,0.3,0.7,0.3,1.1
		l-0.9,0.1c0-0.4-0.2-0.7-0.5-1c-0.3-0.2-0.7-0.3-1.2-0.3c-0.5,0-0.9,0.1-1.2,0.3c-0.2,0.2-0.4,0.4-0.4,0.7c0,0.2,0.1,0.4,0.3,0.6
		c0.2,0.2,0.6,0.3,1.4,0.5c0.7,0.2,1.2,0.3,1.5,0.4c0.4,0.2,0.7,0.4,0.9,0.7c0.2,0.3,0.3,0.6,0.3,1c0,0.4-0.1,0.7-0.3,1
		c-0.2,0.3-0.5,0.6-0.9,0.7c-0.4,0.2-0.8,0.3-1.3,0.3c-0.6,0-1.1-0.1-1.5-0.3c-0.4-0.2-0.7-0.4-1-0.8
		C28.3,520.1,28.1,519.7,28.1,519.2z"/>
	<path class="st0" d="M41.5,521.4l2.6-6.8h1l2.8,6.8h-1l-0.8-2h-2.8l-0.7,2H41.5z M43.5,518.6h2.3l-0.7-1.9c-0.2-0.6-0.4-1-0.5-1.4
		c-0.1,0.4-0.2,0.9-0.4,1.3L43.5,518.6z"/>
	<polygon class="st0" points="56.1,521.4 56.1,514.7 57,514.7 60.6,520 60.6,514.7 61.4,514.7 61.4,521.4 60.5,521.4 57,516.1 
		57,521.4 	"/>
	<path class="st0" d="M80.7,521.4v-6.8H83c0.5,0,0.9,0,1.2,0.1c0.4,0.1,0.7,0.3,1,0.5c0.4,0.3,0.6,0.7,0.8,1.2
		c0.2,0.5,0.3,1,0.3,1.6c0,0.5-0.1,1-0.2,1.4c-0.1,0.4-0.3,0.7-0.5,1c-0.2,0.3-0.4,0.5-0.6,0.6c-0.2,0.1-0.5,0.3-0.8,0.3
		c-0.3,0.1-0.7,0.1-1.1,0.1H80.7z M81.6,520.6H83c0.4,0,0.8,0,1.1-0.1c0.3-0.1,0.5-0.2,0.6-0.4c0.2-0.2,0.4-0.5,0.5-0.9
		c0.1-0.4,0.2-0.8,0.2-1.3c0-0.7-0.1-1.2-0.3-1.6c-0.2-0.4-0.5-0.6-0.8-0.8c-0.2-0.1-0.6-0.1-1.2-0.1h-1.4L81.6,520.6L81.6,520.6z"
		/>
	<rect x="95.2" y="514.7" class="st0" width="0.9" height="6.8"/>
	<polygon class="st0" points="105.3,521.4 105.3,514.7 110.1,514.7 110.1,515.5 106.1,515.5 106.1,517.5 109.9,517.5 109.9,518.3 
		106.1,518.3 106.1,520.6 110.3,520.6 110.3,521.4 	"/>
	<path class="st0" d="M122.3,518.8V518l2.9,0v2.5c-0.4,0.4-0.9,0.6-1.4,0.8c-0.5,0.2-0.9,0.3-1.4,0.3c-0.7,0-1.3-0.1-1.8-0.4
		c-0.5-0.3-1-0.7-1.2-1.2c-0.3-0.5-0.4-1.1-0.4-1.8c0-0.7,0.1-1.3,0.4-1.8c0.3-0.6,0.7-1,1.2-1.3c0.5-0.3,1.1-0.4,1.8-0.4
		c0.5,0,0.9,0.1,1.3,0.2c0.4,0.2,0.7,0.4,0.9,0.7c0.2,0.3,0.4,0.7,0.5,1.1l-0.8,0.2c-0.1-0.3-0.2-0.6-0.4-0.8
		c-0.1-0.2-0.4-0.4-0.6-0.5c-0.3-0.1-0.6-0.2-0.9-0.2c-0.4,0-0.8,0.1-1.1,0.2c-0.3,0.1-0.5,0.3-0.7,0.5c-0.2,0.2-0.3,0.4-0.4,0.7
		c-0.2,0.4-0.3,0.9-0.3,1.4c0,0.6,0.1,1.1,0.3,1.5c0.2,0.4,0.5,0.7,0.9,0.9c0.4,0.2,0.8,0.3,1.3,0.3c0.4,0,0.8-0.1,1.1-0.2
		c0.4-0.1,0.6-0.3,0.8-0.5v-1.3L122.3,518.8L122.3,518.8z"/>
	<path class="st0" d="M133.7,518.1c0-1.1,0.3-2,0.9-2.6c0.6-0.6,1.4-1,2.3-1c0.6,0,1.2,0.1,1.7,0.4c0.5,0.3,0.9,0.7,1.1,1.2
		c0.3,0.5,0.4,1.1,0.4,1.8c0,0.7-0.1,1.3-0.4,1.8c-0.3,0.5-0.7,1-1.2,1.2c-0.5,0.3-1.1,0.4-1.6,0.4c-0.6,0-1.2-0.2-1.7-0.5
		c-0.5-0.3-0.9-0.7-1.1-1.3C133.8,519.3,133.7,518.7,133.7,518.1z M134.6,518.1c0,0.8,0.2,1.5,0.7,1.9c0.4,0.5,1,0.7,1.6,0.7
		c0.7,0,1.2-0.2,1.7-0.7c0.4-0.5,0.7-1.1,0.7-2c0-0.5-0.1-1-0.3-1.4c-0.2-0.4-0.5-0.7-0.8-1c-0.4-0.2-0.8-0.3-1.2-0.3
		c-0.6,0-1.2,0.2-1.6,0.7C134.9,516.4,134.6,517.1,134.6,518.1z"/>
	<polygon class="st0" points="22.3,541.7 24.7,525.8 29.6,525.8 29.6,548.2 26.2,548.2 26.2,532.1 23.8,548.2 20.5,548.2 
		17.9,532.4 17.9,548.2 14.8,548.2 14.8,525.8 19.7,525.8 	"/>
	<polygon class="st0" points="36,535.2 40.8,535.2 40.8,538.4 36,538.4 36,545 42,545 42,548.2 32.4,548.2 32.4,525.8 42,525.8 
		42,529 36,529 	"/>
	<path class="st0" d="M55.9,548.2h-3.5l-0.6-4.1h-4.3l-0.6,4.1h-3.2l3.6-22.4h5.1L55.9,548.2z M47.9,541.1h3.4l-1.7-11.3L47.9,541.1
		z"/>
	<polygon class="st0" points="57.8,525.8 61.4,525.8 61.4,545 67.1,545 67.1,548.2 57.8,548.2 	"/>
	<path class="st0" d="M79,525.6c3.4,0,5.2,2,5.2,5.6v0.7h-3.3V531c0-1.6-0.6-2.2-1.8-2.2c-1.1,0-1.8,0.6-1.8,2.2
		c0,4.6,6.9,5.5,6.9,11.9c0,3.6-1.8,5.6-5.2,5.6c-3.5,0-5.2-2-5.2-5.6v-1.4H77v1.6c0,1.6,0.7,2.2,1.8,2.2c1.1,0,1.8-0.6,1.8-2.2
		c0-4.6-6.9-5.5-6.9-11.9C73.8,527.6,75.6,525.6,79,525.6z"/>
	<polygon class="st0" points="90,535.2 94.9,535.2 94.9,538.4 90,538.4 90,545 96.1,545 96.1,548.2 86.5,548.2 86.5,525.8 
		96.1,525.8 96.1,529 90,529 	"/>
	<path class="st0" d="M106,548.2c-0.2-0.6-0.3-0.9-0.3-2.7v-3.5c0-2.1-0.7-2.8-2.3-2.8h-1.2v9.1h-3.5v-22.4h5.3
		c3.6,0,5.2,1.7,5.2,5.1v1.8c0,2.3-0.7,3.8-2.3,4.5c1.8,0.7,2.3,2.4,2.3,4.8v3.5c0,1.1,0,1.9,0.4,2.7L106,548.2L106,548.2z
		 M102.1,529v6.9h1.4c1.3,0,2.1-0.6,2.1-2.4v-2.2c0-1.6-0.5-2.3-1.8-2.3L102.1,529L102.1,529z"/>
	<polygon class="st0" points="117,544.1 119.7,525.8 122.9,525.8 119.5,548.2 114.2,548.2 110.8,525.8 114.3,525.8 	"/>
	<rect x="124.9" y="525.8" class="st0" width="3.5" height="22.4"/>
	<path class="st0" d="M141.5,539.8v3c0,3.6-1.8,5.6-5.2,5.6c-3.5,0-5.2-2-5.2-5.6v-11.6c0-3.6,1.8-5.6,5.2-5.6s5.2,2,5.2,5.6v2.2
		h-3.3V531c0-1.6-0.7-2.2-1.8-2.2c-1.1,0-1.8,0.6-1.8,2.2V543c0,1.6,0.7,2.2,1.8,2.2c1.1,0,1.8-0.6,1.8-2.2v-3.2H141.5L141.5,539.8z
		"/>
	<polygon class="st0" points="147.4,535.2 152.3,535.2 152.3,538.4 147.4,538.4 147.4,545 153.5,545 153.5,548.2 143.9,548.2 
		143.9,525.8 153.5,525.8 153.5,529 147.4,529 	"/>
	<path class="st0" d="M37.8,559.3v-6.8h2.5c0.4,0,0.8,0,1,0.1c0.3,0.1,0.6,0.2,0.8,0.3c0.2,0.2,0.4,0.4,0.5,0.7
		c0.1,0.3,0.2,0.6,0.2,0.9c0,0.6-0.2,1.1-0.5,1.5c-0.4,0.4-1,0.6-2,0.6h-1.7v2.7L37.8,559.3L37.8,559.3z M38.7,555.8h1.7
		c0.6,0,1-0.1,1.2-0.3c0.2-0.2,0.4-0.5,0.4-0.9c0-0.3-0.1-0.5-0.2-0.7c-0.1-0.2-0.3-0.3-0.6-0.4c-0.2,0-0.4-0.1-0.8-0.1h-1.7V555.8z
		"/>
	<path class="st0" d="M51.7,559.3v-6.8h3c0.6,0,1.1,0.1,1.4,0.2c0.3,0.1,0.6,0.3,0.8,0.6c0.2,0.3,0.3,0.6,0.3,1
		c0,0.5-0.2,0.9-0.5,1.2c-0.3,0.3-0.8,0.5-1.4,0.6c0.2,0.1,0.4,0.2,0.5,0.3c0.3,0.2,0.5,0.5,0.7,0.9l1.2,1.8h-1.1l-0.9-1.4
		c-0.3-0.4-0.5-0.7-0.6-0.9c-0.2-0.2-0.3-0.4-0.5-0.5c-0.1-0.1-0.3-0.1-0.4-0.2c-0.1,0-0.3,0-0.5,0h-1v3L51.7,559.3L51.7,559.3z
		 M52.6,555.6h1.9c0.4,0,0.7,0,1-0.1c0.2-0.1,0.4-0.2,0.5-0.4c0.1-0.2,0.2-0.4,0.2-0.6c0-0.3-0.1-0.6-0.3-0.8
		c-0.2-0.2-0.6-0.3-1.1-0.3h-2.1V555.6z"/>
	<path class="st0" d="M65.8,556.1c0-1.1,0.3-2,0.9-2.6c0.6-0.6,1.4-1,2.3-1c0.6,0,1.2,0.1,1.7,0.4c0.5,0.3,0.9,0.7,1.1,1.2
		c0.3,0.5,0.4,1.1,0.4,1.8c0,0.7-0.1,1.3-0.4,1.8c-0.3,0.5-0.7,1-1.2,1.2c-0.5,0.3-1.1,0.4-1.6,0.4c-0.6,0-1.2-0.2-1.7-0.5
		c-0.5-0.3-0.9-0.7-1.1-1.3C65.9,557.2,65.8,556.6,65.8,556.1z M66.7,556.1c0,0.8,0.2,1.5,0.7,1.9c0.4,0.5,1,0.7,1.6,0.7
		c0.7,0,1.2-0.2,1.7-0.7c0.4-0.5,0.7-1.1,0.7-2c0-0.5-0.1-1-0.3-1.4c-0.2-0.4-0.5-0.7-0.8-1c-0.4-0.2-0.8-0.3-1.2-0.3
		c-0.6,0-1.2,0.2-1.6,0.7C66.9,554.3,66.7,555,66.7,556.1z"/>
	<path class="st0" d="M84.1,556.7v-0.8l2.9,0v2.5c-0.4,0.4-0.9,0.6-1.4,0.8c-0.5,0.2-0.9,0.3-1.4,0.3c-0.7,0-1.3-0.1-1.8-0.4
		c-0.5-0.3-1-0.7-1.2-1.2c-0.3-0.5-0.4-1.1-0.4-1.8c0-0.7,0.1-1.3,0.4-1.8c0.3-0.6,0.7-1,1.2-1.3c0.5-0.3,1.1-0.4,1.8-0.4
		c0.5,0,0.9,0.1,1.3,0.2c0.4,0.2,0.7,0.4,0.9,0.7c0.2,0.3,0.4,0.7,0.5,1.1l-0.8,0.2c-0.1-0.3-0.2-0.6-0.4-0.8
		c-0.2-0.2-0.4-0.4-0.6-0.5c-0.3-0.1-0.6-0.2-0.9-0.2c-0.4,0-0.8,0.1-1.1,0.2c-0.3,0.1-0.5,0.3-0.7,0.5c-0.2,0.2-0.3,0.4-0.4,0.7
		c-0.2,0.4-0.3,0.9-0.3,1.4c0,0.6,0.1,1.1,0.3,1.5c0.2,0.4,0.5,0.7,0.9,0.9c0.4,0.2,0.8,0.3,1.3,0.3c0.4,0,0.8-0.1,1.1-0.2
		c0.4-0.2,0.6-0.3,0.8-0.5v-1.3H84.1z"/>
	<path class="st0" d="M95.9,559.3v-6.8h3c0.6,0,1.1,0.1,1.4,0.2c0.3,0.1,0.6,0.3,0.8,0.6c0.2,0.3,0.3,0.6,0.3,1
		c0,0.5-0.2,0.9-0.5,1.2c-0.3,0.3-0.8,0.5-1.4,0.6c0.2,0.1,0.4,0.2,0.5,0.3c0.3,0.2,0.5,0.5,0.7,0.9l1.2,1.8h-1.1l-0.9-1.4
		c-0.3-0.4-0.5-0.7-0.6-0.9c-0.2-0.2-0.3-0.4-0.5-0.5c-0.1-0.1-0.3-0.1-0.4-0.2c-0.1,0-0.3,0-0.5,0h-1v3L95.9,559.3L95.9,559.3z
		 M96.7,555.6h1.9c0.4,0,0.7,0,1-0.1c0.2-0.1,0.4-0.2,0.5-0.4c0.1-0.2,0.2-0.4,0.2-0.6c0-0.3-0.1-0.6-0.3-0.8
		c-0.2-0.2-0.6-0.3-1.1-0.3h-2.1L96.7,555.6L96.7,555.6z"/>
	<path class="st0" d="M109.5,559.3l2.6-6.8h1l2.8,6.8h-1l-0.8-2h-2.8l-0.7,2H109.5z M111.4,556.6h2.3l-0.7-1.9
		c-0.2-0.6-0.4-1-0.5-1.4c-0.1,0.4-0.2,0.9-0.4,1.3L111.4,556.6z"/>
	<path class="st0" d="M124,559.3v-6.8h1.3l1.6,4.8c0.1,0.4,0.3,0.8,0.3,1c0.1-0.2,0.2-0.6,0.4-1.1l1.6-4.7h1.2v6.8h-0.9v-5.7l-2,5.7
		h-0.8l-2-5.8v5.8H124z"/>
</g>
<g>
	<path class="st1" d="M-55,502l-5.8,5.9V565c1.6-1,3.6-1.9,5.9-2.6l0.5-15.2c-0.3-0.3-0.5-0.7-0.5-1.2c0-0.4,0.1-0.7,0.3-1l0.1-0.1
		c0,0-0.1-0.7-0.8-1.8l0.1-6.3c-0.1-2.2,0.1-3.5-0.1-8.1c-0.2-4.1-0.9-8.4-0.9-8.4s-0.2-1.9,0.4-2.7c0,0,0.2-0.4,0.9-0.4
		c0.3,0,0.8,0.1,1.3,0.4c0,0,0.6,0.2,1.4,1.6v-0.8h1.5v-11.7L-55,502"/>
	<path class="st2" d="M-41.8,531.2h-3v29.9c1,0,2,0.1,3,0.1V531.2"/>
	<path class="st3" d="M-33.4,510.8h-8.4v20.5h2.3v30.3c1.3,0.2,2.6,0.4,3.9,0.6v-27.5l0-12.9l2.1-2.4L-33.4,510.8"/>
	<path class="st4" d="M-39.5,531.2h-2.3v30c0.8,0.1,1.6,0.1,2.3,0.2V531.2"/>
	<path class="st5" d="M-19.7,525.3h-8v6.3c2.2,1.7,3.8,5.9,3.7,10.1c-0.1,4.2,0,6.1-2.1,8.2c-0.5,0.6-1.1,1.1-1.7,1.6v12.2
		c0.5,0.1,0.9,0.2,1.4,0.3c1.1,0.2,2.2,0.5,3.2,0.7v-31.5h3.5L-19.7,525.3"/>
	<path class="st6" d="M-16.6,533.3h-3.1v32.2c1,0.2,2.1,0.4,3.1,0.6V533.3"/>
	<path class="st7" d="M-19.7,533.3h-3.5v31.5c1.2,0.3,2.3,0.5,3.5,0.7V533.3"/>
	<path class="st6" d="M-49.8,542.7c-0.1,0.1-0.2,0.2-0.3,0.3c0,0-0.3,0.1-0.7,0.4v18.1c0.3-0.1,0.6-0.1,1-0.1V542.7 M-44.8,518.2
		h-5.9v4.6c0.3,1.2,0.7,2.7,0.9,4.5c0,0,0.1,1.3,0.2,3.8h4.8V518.2"/>
	<path class="st8" d="M-50.8,543.4c-0.3,0.3-0.6,0.8-0.7,1.6l0,0.1c0.2,0.3,0.3,0.6,0.3,1c0,0.3-0.1,0.6-0.2,0.8
		c0,0.1-0.1,0.3-0.2,0.4l0.2,14.4c0.2,0,0.4-0.1,0.5-0.1V543.4 M-50.8,518.2h-1.5v0.8c0.5,0.8,1,2,1.5,3.8V518.2"/>
	<path class="st9" d="M-44.8,531.2h-4.8c0.1,2.5,0.1,6.2-0.1,10.9c0,0,0,0.3-0.1,0.5v18.7c1.3-0.2,2.5-0.3,3.8-0.3
		c0.2,0,0.4,0,0.6,0c0.2,0,0.4,0,0.6,0L-44.8,531.2"/>
	<path class="st10" d="M-33.4,549.5v13c0.8,0.2,1.6,0.3,2.4,0.5l0.2-3.3l0.1-6.4c0,0,0.1-0.7-0.5-1.6c-0.6-0.4-1.4-0.9-1.9-1.7
		C-33.2,549.8-33.3,549.7-33.4,549.5 M-31.6,517.2l-1.8,2v14.3c1-1.7,2.2-2.8,3.6-2.8c0,0,0,0,0,0c0.4,0,0.8,0.1,1.2,0.3v-5.8h0.9
		v-3.7l0,0.3L-31.6,517.2"/>
	<path class="st11" d="M-33.4,519.3l-2.1,2.4l0,12.9v27.5c0.7,0.1,1.4,0.3,2.1,0.4v-13c-1-1.7-2-4.4-1.9-8c0-2.9,0.8-5.9,1.9-7.9
		L-33.4,519.3"/>
	<path class="st10" d="M-28.6,553.3C-28.6,553.3-28.6,553.3-28.6,553.3l-0.3,6.5l0.1,3.7c0.1,0,0.1,0,0.2,0L-28.6,553.3"/>
	<path class="st12" d="M-27.7,551.5c-0.1,0.1-0.2,0.2-0.3,0.3c-0.3,0.4-0.5,0.9-0.6,1.6v10.2c0.3,0.1,0.6,0.1,0.9,0.2V551.5
		 M-27.7,525.3h-0.9v5.8c0.3,0.1,0.6,0.3,0.9,0.6V525.3"/>
	<path class="st1" d="M2.2,566.2c-0.1,0.1-0.2,0.1-0.3,0.2C2.1,566.3,2.2,566.3,2.2,566.2L2.2,566.2 M-2.7,522.6l-2.7,2.1v40.9h0.5
		v1.2c2.4-0.2,4.8-0.6,7.1-1.4v-38.8l0,0.3L-2.7,522.6"/>
	<path class="st13" d="M-5.4,517.7h-11.2v15.5h2.4v33.2c2.2,0.3,4.4,0.5,6.5,0.5v-28.6l0-11.7l2.3-1.8V517.7"/>
	<path class="st14" d="M-14.2,533.3h-2.4v32.8c0.8,0.1,1.6,0.3,2.4,0.4V533.3"/>
	<path class="st15" d="M-5.4,524.7l-2.3,1.8l0,11.7v28.6c0,0,0,0,0,0c0.1,0,0.1,0,0.2,0v-1.3h2.1L-5.4,524.7"/>
	<path class="st0" d="M-55.4,528.7c0.2,4.6,0,5.9,0.1,8.1l-0.1,6.3c0.7,1.1,0.8,1.8,0.8,1.8l-0.1,0.1c-0.2,0.3-0.3,0.6-0.3,1
		c0,0.5,0.2,0.9,0.5,1.2l-0.6,18.5h3.8l-0.2-18.5c0.1-0.1,0.2-0.2,0.2-0.4c0.1-0.2,0.2-0.5,0.2-0.8c0-0.4-0.1-0.7-0.3-1l0-0.1
		c0.2-1.8,1.3-2,1.3-2c0.4-0.2,0.4-0.8,0.4-0.8c0.4-9.3-0.2-14.7-0.2-14.7c-1.3-9-3.9-9.9-3.9-9.9c-1.7-0.9-2.2,0-2.2,0
		c-0.6,0.9-0.4,2.7-0.4,2.7S-55.5,524.5-55.4,528.7"/>
	<path class="st0" d="M-31.3,551.7c0.6,0.9,0.5,1.6,0.5,1.6l-0.1,6.4l-0.3,6.1h2.4l-0.2-5.9l0.3-6.5c0-0.7,0.3-1.2,0.6-1.6
		c0.6-0.5,1.3-1.2,2-1.8c2-2.1,2-4,2.1-8.2c0.1-5.4-2.7-10.8-5.8-10.9c-3.1,0-5.5,5.3-5.6,10.7c-0.1,3.9,1.1,6.8,2.2,8.5
		C-32.7,550.7-31.8,551.2-31.3,551.7"/>
	<path class="st0" d="M-10.3,562.7c0.3,0.4,0.7,0.6,1.1,0.9l1,0.8c0.6,0.5,0.8,1.1,0.8,1.4h2.6c0.2-1.2,1.2-1.8,1.2-1.8l0.6-0.5
		c1.1-0.7,1.2-1.9,1.2-1.9c0-0.5,0-1.1,0-1.6c0-1-0.1-1.9-0.2-2.9c-0.1-1.2-0.2-2.4-0.3-3.5c-0.1-1.3-0.2-2.6-0.3-3.8
		c-0.1-1-0.2-2-0.3-3.1c0-0.4-0.1-0.8-0.1-1.2c-0.7-2.3-1,0.1-1,0.1l0.5,11.9l0,0c0,0.2-0.2,0.4-0.4,0.4c-0.2,0-0.4-0.2-0.4-0.4l0,0
		l0,0l-0.5-11.9c-0.6-2.8-1,0-1,0l0.2,12l0,0c0,0.2-0.2,0.4-0.4,0.4c-0.2,0-0.4-0.2-0.4-0.4l0,0l-0.5-12c0-1-0.5-1.2-0.5-1.2
		c-0.5,0.2-0.5,1.2-0.5,1.2l-0.1,12l0,0l0,0c0,0.1-0.1,0.2-0.1,0.3l-0.1,0.1l0,0c-0.2,0-0.3-0.1-0.3-0.3l0,0l0-12.1
		c-0.4-2.2-1,0-1,0l-0.4,5.7l-0.5,9c0,0.5-0.1,1.1,0,1.6C-10.6,562.1-10.5,562.4-10.3,562.7z"/>
	<polyline class="st0" points="-4.8,568.5 -7.4,568.5 -7.4,565.6 -4.8,565.6 -4.8,568.5 	"/>
	<path class="st0" d="M-63.5,567.2c3-3.3,10.1-6,17.5-6.1c6.5-0.1,13.1,1.4,19.6,2.9c10.7,2.5,21.2,4.9,31.1,0.4
		c0.4-0.4,0.1,0,0,0.3c-4.8,3.2-10.6,5.8-18.6,5.8c-6.3,0.1-12.7-1.3-19.1-2.7C-43.4,565.6-53.7,563.4-63.5,567.2"/>
	<path class="st0" d="M-63.5,568.1c3-3.3,10.1-6,17.5-6.1c6.5-0.1,13.1,1.4,19.6,2.9c10.7,2.5,21.2,4.9,31.1,0.4
		c0.4-0.4,0.1,0,0,0.3c-4.8,3.2-10.6,5.8-18.6,5.8c-6.3,0.1-12.7-1.3-19.1-2.7C-43.4,566.4-53.7,564.2-63.5,568.1"/>
	<path class="st1" d="M4.9,565.8c0,0-0.1,0-0.2,0.2c-0.6,0.3-1.2,0.5-1.8,0.8c-4.5,2.7-9.8,4.6-16.8,4.7c-0.1,0-0.2,0-0.4,0
		c-6.2,0-12.5-1.3-18.7-2.7c-6.3-1.3-12.5-2.7-18.7-2.7c-3.6,0-7.2,0.5-10.7,1.7c-0.4,0.3-0.8,0.7-1.1,1.1c3.9-1.5,7.8-2.1,11.8-2.1
		c6.1,0,12.4,1.3,18.7,2.7c6.3,1.3,12.5,2.7,18.7,2.7c0.1,0,0.2,0,0.4,0c8-0.1,13.8-2.6,18.6-5.8C4.8,566,5,565.8,4.9,565.8"/>
	<path class="st1" d="M-45.4,562.6c-0.2,0-0.4,0-0.6,0c-6.6,0.1-12.9,2.2-16.4,5c3.5-1.2,7.1-1.7,10.7-1.7c6.1,0,12.4,1.3,18.7,2.7
		c6.3,1.3,12.5,2.7,18.7,2.7c0.1,0,0.2,0,0.4,0c7-0.1,12.4-2,16.8-4.7c-3.4,1.3-7,1.8-10.5,1.8c-6.1,0-12.4-1.5-18.7-2.9
		C-32.7,564.1-39.1,562.6-45.4,562.6"/>
</g>
</svg>
